<mxfile host="app.diagrams.net" modified="2024-03-19T13:00:19.154Z" agent="Mozilla/5.0 (X11; Linux x86_64; rv:109.0) Gecko/20100101 Firefox/117.0" etag="gNie-tDWHs1QzS_kYGjN" version="22.1.20" type="github">
  <diagram name="Page-1" id="S4iD2IkzIgUmk9SXDSxy">
    <mxGraphModel dx="478" dy="254" grid="1" gridSize="10" guides="1" tooltips="1" connect="1" arrows="1" fold="1" page="1" pageScale="1" pageWidth="850" pageHeight="1100" math="0" shadow="0">
      <root>
        <mxCell id="0" />
        <mxCell id="1" parent="0" />
        <mxCell id="s4lBdMN9t_Ssbr39f7N7-2" value="L1A" style="shape=cylinder3;whiteSpace=wrap;html=1;boundedLbl=1;backgroundOutline=1;size=15;" vertex="1" parent="1">
          <mxGeometry x="150" y="170" width="60" height="80" as="geometry" />
        </mxCell>
        <mxCell id="s4lBdMN9t_Ssbr39f7N7-3" value="L1B" style="shape=cylinder3;whiteSpace=wrap;html=1;boundedLbl=1;backgroundOutline=1;size=15;" vertex="1" parent="1">
          <mxGeometry x="220" y="170" width="60" height="80" as="geometry" />
        </mxCell>
        <mxCell id="s4lBdMN9t_Ssbr39f7N7-4" value="L1C" style="shape=cylinder3;whiteSpace=wrap;html=1;boundedLbl=1;backgroundOutline=1;size=15;" vertex="1" parent="1">
          <mxGeometry x="290" y="170" width="60" height="80" as="geometry" />
        </mxCell>
        <mxCell id="s4lBdMN9t_Ssbr39f7N7-5" value="L1D" style="shape=cylinder3;whiteSpace=wrap;html=1;boundedLbl=1;backgroundOutline=1;size=15;" vertex="1" parent="1">
          <mxGeometry x="360" y="170" width="60" height="80" as="geometry" />
        </mxCell>
        <mxCell id="s4lBdMN9t_Ssbr39f7N7-6" value="&lt;div&gt;STRIPMAP&lt;/div&gt;" style="verticalLabelPosition=bottom;verticalAlign=top;html=1;shape=mxgraph.basic.wave2;dy=0.3;" vertex="1" parent="1">
          <mxGeometry x="160" y="345" width="100" height="60" as="geometry" />
        </mxCell>
        <mxCell id="s4lBdMN9t_Ssbr39f7N7-10" style="edgeStyle=orthogonalEdgeStyle;rounded=0;orthogonalLoop=1;jettySize=auto;html=1;exitX=0.5;exitY=1;exitDx=0;exitDy=0;exitPerimeter=0;entryX=0;entryY=0;entryDx=50;entryDy=17.099999999999998;entryPerimeter=0;" edge="1" parent="1" source="s4lBdMN9t_Ssbr39f7N7-2" target="s4lBdMN9t_Ssbr39f7N7-6">
          <mxGeometry relative="1" as="geometry" />
        </mxCell>
        <mxCell id="s4lBdMN9t_Ssbr39f7N7-14" style="edgeStyle=orthogonalEdgeStyle;rounded=0;orthogonalLoop=1;jettySize=auto;html=1;exitX=0.5;exitY=1;exitDx=0;exitDy=0;exitPerimeter=0;entryX=0;entryY=0;entryDx=50;entryDy=17.099999999999998;entryPerimeter=0;" edge="1" parent="1" source="s4lBdMN9t_Ssbr39f7N7-3" target="s4lBdMN9t_Ssbr39f7N7-6">
          <mxGeometry relative="1" as="geometry" />
        </mxCell>
        <mxCell id="s4lBdMN9t_Ssbr39f7N7-15" style="edgeStyle=orthogonalEdgeStyle;rounded=0;orthogonalLoop=1;jettySize=auto;html=1;exitX=0.5;exitY=1;exitDx=0;exitDy=0;exitPerimeter=0;entryX=0;entryY=0;entryDx=50;entryDy=17.099999999999998;entryPerimeter=0;" edge="1" parent="1" source="s4lBdMN9t_Ssbr39f7N7-4" target="s4lBdMN9t_Ssbr39f7N7-6">
          <mxGeometry relative="1" as="geometry" />
        </mxCell>
        <mxCell id="s4lBdMN9t_Ssbr39f7N7-16" style="edgeStyle=orthogonalEdgeStyle;rounded=0;orthogonalLoop=1;jettySize=auto;html=1;exitX=0.5;exitY=1;exitDx=0;exitDy=0;exitPerimeter=0;entryX=0;entryY=0;entryDx=50;entryDy=17.099999999999998;entryPerimeter=0;" edge="1" parent="1" source="s4lBdMN9t_Ssbr39f7N7-5" target="s4lBdMN9t_Ssbr39f7N7-6">
          <mxGeometry relative="1" as="geometry" />
        </mxCell>
        <mxCell id="s4lBdMN9t_Ssbr39f7N7-18" value="TOPSAR" style="verticalLabelPosition=bottom;verticalAlign=top;html=1;shape=mxgraph.basic.wave2;dy=0.3;" vertex="1" parent="1">
          <mxGeometry x="330" y="380" width="60" height="40" as="geometry" />
        </mxCell>
        <mxCell id="s4lBdMN9t_Ssbr39f7N7-21" value="" style="verticalLabelPosition=bottom;verticalAlign=top;html=1;shape=mxgraph.basic.wave2;dy=0.3;" vertex="1" parent="1">
          <mxGeometry x="360" y="355" width="60" height="40" as="geometry" />
        </mxCell>
        <mxCell id="s4lBdMN9t_Ssbr39f7N7-22" value="" style="verticalLabelPosition=bottom;verticalAlign=top;html=1;shape=mxgraph.basic.wave2;dy=0.3;" vertex="1" parent="1">
          <mxGeometry x="390" y="330" width="60" height="40" as="geometry" />
        </mxCell>
      </root>
    </mxGraphModel>
  </diagram>
</mxfile>
